<?xml version="1.0" encoding="iso-8859-1"?>
<!-- Generator: Adobe Illustrator 17.1.0, SVG Export Plug-In . SVG Version: 6.00 Build 0)  -->
<!DOCTYPE svg PUBLIC "-//W3C//DTD SVG 1.1//EN" "http://www.w3.org/Graphics/SVG/1.1/DTD/svg11.dtd">
<svg version="1.1" id="Capa_1" xmlns="http://www.w3.org/2000/svg" xmlns:xlink="http://www.w3.org/1999/xlink" x="0px" y="0px"
	 viewBox="0 0 284.336 284.336" style="enable-background:new 0 0 284.336 284.336;" xml:space="preserve">
<path d="M244.884,43.885c-0.847-0.89-1.705-1.772-2.577-2.645c-0.096-0.096-0.202-0.179-0.301-0.272
	C215.235,14.546,179.822,0,142.169,0C104.194,0,68.493,14.788,41.642,41.641c-55.43,55.431-55.43,145.624,0,201.055
	c26.852,26.853,62.553,41.641,100.527,41.641s73.676-14.788,100.527-41.641C297.386,188.006,298.112,99.479,244.884,43.885z
	 M62.854,62.854C84.04,41.668,112.208,30,142.169,30c24.702,0,48.18,7.938,67.536,22.595L52.589,209.674
	C19.45,165.758,22.866,102.843,62.854,62.854z"/>
<g>
</g>
<g>
</g>
<g>
</g>
<g>
</g>
<g>
</g>
<g>
</g>
<g>
</g>
<g>
</g>
<g>
</g>
<g>
</g>
<g>
</g>
<g>
</g>
<g>
</g>
<g>
</g>
<g>
</g>
</svg>
